<svg width="18" height="18" viewBox="0 0 18 18" fill="none" xmlns="http://www.w3.org/2000/svg">
<path d="M17.8055 1.01709C17.8055 0.793652 17.6226 0.61084 17.3992 0.61084L14.0476 0.626075L8.99999 6.64365L3.95741 0.631154L0.600769 0.615918C0.377332 0.615918 0.194519 0.793653 0.194519 1.02217C0.194519 1.11865 0.230066 1.21006 0.291003 1.28623L6.89764 9.15732L0.291003 17.0233C0.229641 17.0978 0.195594 17.191 0.194519 17.2874C0.194519 17.5108 0.377332 17.6937 0.600769 17.6937L3.95741 17.6784L8.99999 11.6608L14.0426 17.6733L17.3941 17.6886C17.6176 17.6886 17.8004 17.5108 17.8004 17.2823C17.8004 17.1858 17.7648 17.0944 17.7039 17.0183L11.1074 9.15225L17.714 1.28115C17.775 1.21006 17.8055 1.11357 17.8055 1.01709Z" fill="#F97316"/>
</svg>
