<svg width="180" height="36" viewBox="0 0 228 36" fill="none" xmlns="http://www.w3.org/2000/svg">
<path d="M33.9998 16.78C34.3715 16.5032 34.6472 16.1169 34.7883 15.6754C34.9293 15.234 34.9287 14.7594 34.7864 14.3183C34.6442 13.8773 34.3675 13.4917 33.995 13.2159C33.6226 12.94 33.1732 12.7876 32.7098 12.78L23.7098 12.44C23.6656 12.437 23.6232 12.4212 23.5877 12.3946C23.5522 12.368 23.5252 12.3317 23.5098 12.29L20.3998 3.89002C20.2436 3.46266 19.9598 3.09364 19.5868 2.83292C19.2139 2.5722 18.7699 2.43237 18.3148 2.43237C17.8598 2.43237 17.4158 2.5722 17.0428 2.83292C16.6699 3.09364 16.3861 3.46266 16.2298 3.89002L13.1298 12.32C13.1145 12.3617 13.0875 12.398 13.052 12.4246C13.0165 12.4512 12.9741 12.467 12.9298 12.47L3.92984 12.81C3.46645 12.8176 3.01704 12.97 2.64463 13.2459C2.27223 13.5217 1.9955 13.9073 1.85325 14.3483C1.711 14.7894 1.71036 15.264 1.85143 15.7054C1.99249 16.1469 2.26818 16.5332 2.63984 16.81L9.69984 22.36C9.73517 22.3878 9.76158 22.4254 9.7758 22.468C9.79002 22.5107 9.79142 22.5566 9.77984 22.6L7.34984 31.21C7.22392 31.6485 7.23612 32.1151 7.38478 32.5463C7.53344 32.9776 7.81135 33.3526 8.18069 33.6203C8.55003 33.888 8.99288 34.0355 9.449 34.0426C9.90511 34.0497 10.3523 33.9161 10.7298 33.66L18.1898 28.66C18.2266 28.6347 18.2702 28.6211 18.3148 28.6211C18.3595 28.6211 18.4031 28.6347 18.4398 28.66L25.8998 33.66C26.2722 33.9249 26.7179 34.0672 27.1748 34.0672C27.6318 34.0672 28.0774 33.9249 28.4498 33.66C28.8193 33.3948 29.0975 33.0217 29.2461 32.5919C29.3947 32.1621 29.4065 31.6968 29.2798 31.26L26.8298 22.62C26.8169 22.5767 26.8176 22.5303 26.8319 22.4874C26.8462 22.4444 26.8734 22.4069 26.9098 22.38L33.9998 16.78Z" fill="#FA9149"/>
<path d="M81.9998 16.78C82.3715 16.5032 82.6472 16.1169 82.7883 15.6754C82.9293 15.234 82.9287 14.7594 82.7864 14.3183C82.6442 13.8773 82.3674 13.4917 81.995 13.2159C81.6226 12.94 81.1732 12.7876 80.7098 12.78L71.7098 12.44C71.6656 12.437 71.6232 12.4212 71.5877 12.3946C71.5522 12.368 71.5252 12.3317 71.5098 12.29L68.3998 3.89002C68.2436 3.46266 67.9598 3.09364 67.5868 2.83292C67.2139 2.5722 66.7699 2.43237 66.3148 2.43237C65.8598 2.43237 65.4158 2.5722 65.0428 2.83292C64.6699 3.09364 64.3861 3.46266 64.2298 3.89002L61.1298 12.32C61.1145 12.3617 61.0875 12.398 61.052 12.4246C61.0165 12.4512 60.9741 12.467 60.9298 12.47L51.9298 12.81C51.4664 12.8176 51.017 12.97 50.6446 13.2459C50.2722 13.5217 49.9955 13.9073 49.8533 14.3483C49.711 14.7894 49.7104 15.264 49.8514 15.7054C49.9925 16.1469 50.2682 16.5332 50.6398 16.81L57.6998 22.36C57.7352 22.3878 57.7616 22.4254 57.7758 22.468C57.79 22.5107 57.7914 22.5566 57.7798 22.6L55.3498 31.21C55.2239 31.6485 55.2361 32.1151 55.3848 32.5463C55.5334 32.9776 55.8113 33.3526 56.1807 33.6203C56.55 33.888 56.9929 34.0355 57.449 34.0426C57.9051 34.0497 58.3523 33.9161 58.7298 33.66L66.1898 28.66C66.2266 28.6347 66.2702 28.6211 66.3148 28.6211C66.3595 28.6211 66.4031 28.6347 66.4398 28.66L73.8998 33.66C74.2722 33.9249 74.7179 34.0672 75.1748 34.0672C75.6318 34.0672 76.0774 33.9249 76.4498 33.66C76.8193 33.3948 77.0975 33.0217 77.2461 32.5919C77.3947 32.1621 77.4065 31.6968 77.2798 31.26L74.8298 22.62C74.8169 22.5767 74.8176 22.5303 74.8319 22.4874C74.8462 22.4444 74.8734 22.4069 74.9098 22.38L81.9998 16.78Z" fill="#FA9149"/>
<path d="M130 16.78C130.372 16.5032 130.647 16.1169 130.788 15.6754C130.929 15.234 130.929 14.7594 130.786 14.3183C130.644 13.8773 130.367 13.4917 129.995 13.2159C129.623 12.94 129.173 12.7876 128.71 12.78L119.71 12.44C119.666 12.437 119.623 12.4212 119.588 12.3946C119.552 12.368 119.525 12.3317 119.51 12.29L116.4 3.89002C116.244 3.46266 115.96 3.09364 115.587 2.83292C115.214 2.5722 114.77 2.43237 114.315 2.43237C113.86 2.43237 113.416 2.5722 113.043 2.83292C112.67 3.09364 112.386 3.46266 112.23 3.89002L109.13 12.32C109.115 12.3617 109.087 12.398 109.052 12.4246C109.017 12.4512 108.974 12.467 108.93 12.47L99.9298 12.81C99.4664 12.8176 99.017 12.97 98.6446 13.2459C98.2722 13.5217 97.9955 13.9073 97.8533 14.3483C97.711 14.7894 97.7104 15.264 97.8514 15.7054C97.9925 16.1469 98.2682 16.5332 98.6398 16.81L105.7 22.36C105.735 22.3878 105.762 22.4254 105.776 22.468C105.79 22.5107 105.791 22.5566 105.78 22.6L103.35 31.21C103.224 31.6485 103.236 32.1151 103.385 32.5463C103.533 32.9776 103.811 33.3526 104.181 33.6203C104.55 33.888 104.993 34.0355 105.449 34.0426C105.905 34.0497 106.352 33.9161 106.73 33.66L114.19 28.66C114.227 28.6347 114.27 28.6211 114.315 28.6211C114.359 28.6211 114.403 28.6347 114.44 28.66L121.9 33.66C122.272 33.9249 122.718 34.0672 123.175 34.0672C123.632 34.0672 124.077 33.9249 124.45 33.66C124.819 33.3948 125.097 33.0217 125.246 32.5919C125.395 32.1621 125.407 31.6968 125.28 31.26L122.83 22.62C122.817 22.5767 122.818 22.5303 122.832 22.4874C122.846 22.4444 122.873 22.4069 122.91 22.38L130 16.78Z" fill="#FA9149"/>
<path d="M178 16.78C178.372 16.5032 178.647 16.1169 178.788 15.6754C178.929 15.234 178.929 14.7594 178.786 14.3183C178.644 13.8773 178.367 13.4917 177.995 13.2159C177.623 12.94 177.173 12.7876 176.71 12.78L167.71 12.44C167.666 12.437 167.623 12.4212 167.588 12.3946C167.552 12.368 167.525 12.3317 167.51 12.29L164.4 3.89002C164.244 3.46266 163.96 3.09364 163.587 2.83292C163.214 2.5722 162.77 2.43237 162.315 2.43237C161.86 2.43237 161.416 2.5722 161.043 2.83292C160.67 3.09364 160.386 3.46266 160.23 3.89002L157.13 12.32C157.115 12.3617 157.087 12.398 157.052 12.4246C157.017 12.4512 156.974 12.467 156.93 12.47L147.93 12.81C147.466 12.8176 147.017 12.97 146.645 13.2459C146.272 13.5217 145.996 13.9073 145.853 14.3483C145.711 14.7894 145.71 15.264 145.851 15.7054C145.992 16.1469 146.268 16.5332 146.64 16.81L153.7 22.36C153.735 22.3878 153.762 22.4254 153.776 22.468C153.79 22.5107 153.791 22.5566 153.78 22.6L151.35 31.21C151.224 31.6485 151.236 32.1151 151.385 32.5463C151.533 32.9776 151.811 33.3526 152.181 33.6203C152.55 33.888 152.993 34.0355 153.449 34.0426C153.905 34.0497 154.352 33.9161 154.73 33.66L162.19 28.66C162.227 28.6347 162.27 28.6211 162.315 28.6211C162.359 28.6211 162.403 28.6347 162.44 28.66L169.9 33.66C170.272 33.9249 170.718 34.0672 171.175 34.0672C171.632 34.0672 172.077 33.9249 172.45 33.66C172.819 33.3948 173.097 33.0217 173.246 32.5919C173.395 32.1621 173.407 31.6968 173.28 31.26L170.83 22.62C170.817 22.5767 170.818 22.5303 170.832 22.4874C170.846 22.4444 170.873 22.4069 170.91 22.38L178 16.78Z" fill="#FA9149"/>
<path d="M226 16.78C226.372 16.5032 226.647 16.1169 226.788 15.6754C226.929 15.234 226.929 14.7594 226.786 14.3183C226.644 13.8773 226.367 13.4917 225.995 13.2159C225.623 12.94 225.173 12.7876 224.71 12.78L215.71 12.44C215.666 12.437 215.623 12.4212 215.588 12.3946C215.552 12.368 215.525 12.3317 215.51 12.29L212.4 3.89002C212.244 3.46266 211.96 3.09364 211.587 2.83292C211.214 2.5722 210.77 2.43237 210.315 2.43237C209.86 2.43237 209.416 2.5722 209.043 2.83292C208.67 3.09364 208.386 3.46266 208.23 3.89002L205.13 12.32C205.115 12.3617 205.087 12.398 205.052 12.4246C205.017 12.4512 204.974 12.467 204.93 12.47L195.93 12.81C195.466 12.8176 195.017 12.97 194.645 13.2459C194.272 13.5217 193.996 13.9073 193.853 14.3483C193.711 14.7894 193.71 15.264 193.851 15.7054C193.992 16.1469 194.268 16.5332 194.64 16.81L201.7 22.36C201.735 22.3878 201.762 22.4254 201.776 22.468C201.79 22.5107 201.791 22.5566 201.78 22.6L199.35 31.21C199.224 31.6485 199.236 32.1151 199.385 32.5463C199.533 32.9776 199.811 33.3526 200.181 33.6203C200.55 33.888 200.993 34.0355 201.449 34.0426C201.905 34.0497 202.352 33.9161 202.73 33.66L210.19 28.66C210.227 28.6347 210.27 28.6211 210.315 28.6211C210.359 28.6211 210.403 28.6347 210.44 28.66L217.9 33.66C218.272 33.9249 218.718 34.0672 219.175 34.0672C219.632 34.0672 220.077 33.9249 220.45 33.66C220.819 33.3948 221.097 33.0217 221.246 32.5919C221.395 32.1621 221.407 31.6968 221.28 31.26L218.83 22.62C218.817 22.5767 218.818 22.5303 218.832 22.4874C218.846 22.4444 218.873 22.4069 218.91 22.38L226 16.78Z" fill="#FA9149"/>
</svg>
